# AST/ASF file generated using VICON BodyLanguage
# -----------------------------------------------
:version 1.10
:name VICON
:units
  mass 1.0
  length 0.45
  angle deg
:documentation
   .ast/.asf automatically generated from VICON data using
   VICON BodyBuilder and BodyLanguage model FoxedUp or BRILLIANT.MOD
:root
   order TX TY TZ RX RY RZ
   axis XYZ
   position 0 0 0  
   orientation 0 0 0 
:bonedata
  begin
     id 1 
     name lhipjoint
     direction 0.623529 -0.717805 0.309788 
     length 2.23224 
     axis 0 0 0  XYZ
  end
  begin
     id 2 
     name lfemur
     direction 0.34202 -0.939693 0  
     length 7.11402  
     axis 0 0 20  XYZ
    dof rx ry rz
    limits (-160.0 20.0)
           (-70.0 70.0)
           (-60.0 70.0)
  end
  begin
     id 3 
     name ltibia
     direction 0.34202 -0.939693 0   
     length 6.78496   
     axis 0 0 20   XYZ
    dof rx
    limits (-10.0 170.0)
  end
  begin
     id 4 
     name lfoot
     direction 0.125078 -0.343648 0.930732   
     length 1.84054   
     axis -90 7.62852e-016 20   XYZ
    dof rx rz
    limits (-45.0 90.0)
           (-70.0 20.0)
  end
  begin
     id 5 
     name ltoes
     direction 1.53565e-011 -4.21893e-011 1   
     length 0.916474   
     axis -90 7.62852e-016 20   XYZ
    dof rx
    limits (-90.0 20.0)
  end
  begin
     id 6 
     name rhipjoint
     direction -0.564688 -0.757748 0.327026   
     length 2.11457  
     axis 0 0 0  XYZ 
  end
  begin
     id 7 
     name rfemur
     direction -0.34202 -0.939693 0   
     length 7.14609   
     axis 0 0 -20   XYZ
    dof rx ry rz
    limits (-160.0 20.0)
           (-70.0 70.0)
           (-70.0 60.0)
  end
  begin
     id 8 
     name rtibia
     direction -0.34202 -0.939693 0   
     length 6.78101   
     axis 0 0 -20   XYZ
    dof rx
    limits (-10.0 170.0)
 end
 begin
     id 9 
     name rfoot
     direction -0.0992671 -0.272734 0.956955   
     length 1.96168  
     axis -90 -7.62852e-016 -20   XYZ
    dof rx rz
    limits (-45.0 90.0)
           (-20.0 70.0)
  end
  begin
     id 10 
     name rtoes
     direction -1.5356e-011 -4.21891e-011 1   
     length 0.982933   
     axis -90 -7.62852e-016 -20   XYZ
    dof rx
    limits (-90.0 20.0)
  end
  begin
     id 11 
     name lowerback
     direction -0.00596953 0.998668 0.0512524   
     length 1.87557   
     axis 0 0 0   XYZ
    dof rx ry rz
    limits (-20.0 45.0)
           (-30.0 30.0)
           (-30.0 30.0)
  end
  begin
     id 12 
     name upperback
     direction 0.00584879 0.999652 0.0257308   
     length 1.87883   
     axis 0 0 0   XYZ
    dof rx ry rz
    limits (-20.0 45.0)
           (-30.0 30.0)
           (-30.0 30.0)
  end
  begin
     id 13 
     name thorax
     direction 0.010104 0.999947 0.00178881   
     length 1.87779   
     axis 0 0 0   XYZ
    dof rx ry rz
    limits (-20.0 45.0)
           (-30.0 30.0)
           (-30.0 30.0)
  end
  begin
     id 14 
     name lowerneck
     direction 0.0120771 0.995934 -0.0892773   
     length 1.40897   
     axis 0 0 0   XYZ
    dof rx ry rz
    limits (-20.0 45.0)
           (-30.0 30.0)
           (-30.0 30.0)
  end
  begin
     id 15 
     name upperneck
     direction -0.030568 0.999465 -0.0116366   
     length 1.38661   
     axis 0 0 0   XYZ
    dof rx ry rz
    limits (-20.0 45.0)
           (-30.0 30.0)
           (-30.0 30.0)
  end
  begin
     id 16
     name head
     direction -0.0170715 0.999854 -0.00104426  
     length 1.47052  
     axis 0 0 0   XYZ
    dof rx ry rz
    limits (-20.0 45.0)
           (-30.0 30.0)
           (-30.0 30.0)
  end
  begin
     id 17 
     name lclavicle
     direction 0.977763 0.206143 0.038532  
     length 3.02424  
     axis 0 0 0   XYZ
    dof ry rz
    limits (-20.0 10.0)
           (0.0 20.0)
  end
  begin
     id 18 
     name lhumerus
     direction 1 -4.48965e-011 -2.62654e-027   
     length 4.68382   
     axis 180 -30 -90   XYZ
    dof rx ry rz
    limits (-60.0 90.0)
           (-90.0 90.0)
           (-90.0 90.0)
  end
  begin
     id 19
     name lradius
     direction 1 -4.48973e-011 -1.54954e-027   
     length 2.98124   
     axis 180 -30 -90   XYZ
    dof rx
    limits (-10.0 170.0)
  end
  begin
     id 20
     name lwrist
     direction 1 -4.48959e-011 7.20928e-028   
     length 1.49062   
     axis -5.52449e-016 90 90   XYZ
    dof ry
    limits (-180.0 0.0)
 end
  begin
     id 21 
     name lhand
     direction 1 -4.48971e-011 1.44186e-027   
     length 0.707595   
     axis -9.20027e-016 90 90   XYZ
    dof rx rz
    limits (-90.0 90.0)
           (-45.0 45.0)
  end
  begin
     id 22 
     name lfingers
     direction 1 -4.48985e-011 2.88371e-027   
     length 0.570481   
     axis -1.84005e-015 90 90   XYZ
    dof rx
    limits (0.0 90.0)
  end
  begin
     id 23
     name lthumb
     direction 0.707107 -6.34929e-011 0.707107   
     length 0.819101   
     axis -90 45 2.85299e-015   XYZ
    dof rx rz
    limits (-45.0 45.0)
           (-45.0 45.0)
  end
  begin
     id 24 
     name rclavicle
     direction -0.958661 0.284411 -0.00895327   
     length 3.11921  
     axis 0 0 0   XYZ 
    dof ry rz
    limits (-10.0 20.0)
           (-20.0 0.0)
  end
  begin
     id 25 
     name rhumerus
     direction -1 -4.48963e-011 -4.22193e-027  
     length 4.75876   
     axis 180 30 90   XYZ
    dof rx ry rz
    limits (-90.0 60.0)
           (-90.0 90.0)
           (-90.0 90.0)
  end
  begin
     id 26 
     name rradius
     direction -1 -4.48968e-011 -1.07616e-027   
     length 2.93293   
     axis 180 30 90   XYZ
    dof rx
    limits (-10.0 170.0)
  end
  begin
     id 27 
     name rwrist
     direction -1 -4.48965e-011 7.20928e-028   
     length 1.46647   
     axis -5.52449e-016 -90 -90   XYZ
    dof ry
    limits (-180.0 0.0)
  end
  begin
     id 28
     name rhand
     direction -1 -4.48971e-011 1.44186e-027   
     length 0.831748   
     axis -9.20027e-016 -90 -90   XYZ
    dof rx rz
    limits (-90.0 90.0)
           (-45.0 45.0)
  end
  begin
     id 29
     name rfingers
     direction -1 -4.48961e-011 2.88371e-027   
     length 0.670577   
     axis -1.84005e-015 -90 -90   XYZ
    dof rx
    limits (0.0 90.0)
  end
  begin
     id 30
     name rthumb
     direction -0.707107 -6.34929e-011 0.707107   
     length 0.962818   
     axis -90 -45 -2.85299e-015   XYZ
    dof rx rz
    limits (-45.0 45.0)
           (-45.0 45.0)
  end
:hierarchy
  begin
    root lhipjoint rhipjoint lowerback
    lhipjoint lfemur
    lfemur ltibia
    ltibia lfoot
    lfoot ltoes
    rhipjoint rfemur
    rfemur rtibia
    rtibia rfoot
    rfoot rtoes
    lowerback upperback
    upperback thorax
    thorax lowerneck lclavicle rclavicle
    lowerneck upperneck
    upperneck head
    lclavicle lhumerus
    lhumerus lradius
    lradius lwrist
    lwrist lhand lthumb
    lhand lfingers
    rclavicle rhumerus
    rhumerus rradius
    rradius rwrist
    rwrist rhand rthumb
    rhand rfingers
  end

#!OML:ASF E:\id_vita\Project 1\Capture day 1\Session 1\Female.ASF
:FULLY-SPECIFIED
:DEGREES
581
root 33.082 16.8452 -9.47655 -154.989 66.7797 180.727
lowerback -16.9329 0.866272 -5.69861
upperback -6.02101 2.57762 -0.87144
thorax 2.84479 1.52792 2.79736
lowerneck 3.66005 1.40863 -4.35622
upperneck -4.26783 2.0283 6.83432
head -2.14361 0.937629 2.93202
rclavicle 2.50469e-014 -1.11319e-014
rhumerus 71.6391 -1.00103 -41.1673
rradius 38.4325
rwrist 4.5892
rhand -34.3173 12.054
rfingers 7.12502
rthumb -7.48585 -17.7935
lclavicle 2.50469e-014 -1.11319e-014
lhumerus 77.5536 3.17044 40.9305
lradius 27.482
lwrist -20.7152
lhand -33.6905 32.5242
lfingers 7.12502
lthumb -6.88085 62.3924
rfemur -7.53412 5.96438 24.0222
rtibia 16.041
rfoot 1.9841 -6.69976
rtoes -12.9465
lfemur -41.9246 -8.93973 -15.5585
ltibia 25.585
lfoot -10.3391 -0.144824
ltoes 3.51919
582
root 33.0742 16.8474 -9.48596 -155.079 66.8154 180.722
lowerback -16.8048 0.92141 -5.51986
upperback -6.06743 2.61408 -0.915777
thorax 2.73587 1.54887 2.65027
lowerneck 3.90654 1.39702 -4.14515
upperneck -4.34103 2.00819 6.62592
head -2.2034 0.923312 2.8226
rclavicle 2.93704e-014 1.98785e-014
rhumerus 71.1857 -0.986996 -40.4143
rradius 38.9341
rwrist 4.08281
rhand -34.2177 11.5772
rfingers 7.12502
rthumb -7.38972 -18.2737
lclavicle 2.93704e-014 1.98785e-014
lhumerus 77.1165 3.05646 39.3159
lradius 28.2216
lwrist -19.0042
lhand -33.3002 33.1883
lfingers 7.12502
lthumb -6.50403 63.0684
rfemur -7.51786 4.72303 23.9428
rtibia 16.0848
rfoot 1.36791 -5.5412
rtoes -13.4831
lfemur -41.7916 -9.0088 -15.5991
ltibia 25.5721
lfoot -10.2456 -0.0560775
ltoes 3.5181
583
root 33.0886 16.8426 -9.47872 -155.301 66.8623 180.53
lowerback -16.9641 0.865666 -5.7585
upperback -6.00582 2.59058 -0.909607
thorax 2.87526 1.53301 2.79476
lowerneck 3.85996 1.36881 -4.03236
upperneck -4.398 1.96971 6.4415
head -2.20532 0.906422 2.74023
rclavicle -2.11209e-014 3.49861e-014
rhumerus 70.7953 -0.964659 -39.506
rradius 39.4652
rwrist 4.0741
rhand -35.0558 12.35
rfingers 7.12502
rthumb -8.19862 -17.4709
lclavicle -2.11209e-014 3.49861e-014
lhumerus 76.8843 3.16841 38.5155
lradius 28.5555
lwrist -18.3509
lhand -33.1688 32.3261
lfingers 7.12502
lthumb -6.37717 62.2101
rfemur -7.45759 5.22999 23.8929
rtibia 16.1598
rfoot 1.55978 -5.97277
rtoes -13.5384
lfemur -41.7181 -9.02952 -15.6435
ltibia 25.5723
lfoot -10.2171 0.0238364
ltoes 3.00112
584
root 33.0791 16.8429 -9.48906 -155.407 66.889 180.437
lowerback -16.917 0.906208 -5.54617
upperback -6.01422 2.60938 -0.990761
thorax 2.85455 1.54059 2.5911
lowerneck 2.25117 1.66345 -5.29391
upperneck -2.90014 2.36048 7.95018
head -1.50404 1.13527 3.47839
rclavicle 7.07176e-014 -3.10104e-014
rhumerus 70.6548 -1.09891 -39.717
rradius 39.7361
rwrist 3.8403
rhand -34.5297 12.9593
rfingers 7.12502
rthumb -7.69085 -16.8808
lclavicle 7.07176e-014 -3.10104e-014
lhumerus 76.9582 3.18779 38.9602
lradius 28.4296
lwrist -18.9707
lhand -33.5521 32.2265
lfingers 7.12502
lthumb -6.74718 62.099
rfemur -7.45013 5.7767 23.786
rtibia 16.286
rfoot 1.75431 -6.39875
rtoes -13.8882
lfemur -41.7038 -9.13629 -15.7128
ltibia 25.6134
lfoot -10.1995 0.150485
ltoes 1.88136
585
root 33.0926 16.8401 -9.48276 -155.52 66.9089 180.312
lowerback -17.0981 0.842555 -5.71915
upperback -6.01408 2.57016 -0.98044
thorax 2.94455 1.52171 2.69928
lowerneck 2.06311 1.66152 -4.99385
upperneck -2.62226 2.3445 7.627
head -1.36653 1.13283 3.30738
rclavicle -2.10712e-014 -1.74931e-014
rhumerus 70.4055 -1.03964 -39.6857
rradius 39.913
rwrist 4.18187
rhand -34.3176 12.5803
rfingers 7.12502
rthumb -7.48612 -17.2672
lclavicle -2.10712e-014 -1.74931e-014
lhumerus 76.8487 3.20634 39.1705
lradius 28.5654
lwrist -19.5407
lhand -33.5984 32.8587
lfingers 7.12502
lthumb -6.7919 62.7297
rfemur -7.43279 6.34634 23.782
rtibia 16.3696
rfoot 2.03106 -6.88213
rtoes -14.6605
lfemur -41.6786 -9.17579 -15.7017
ltibia 25.6437
lfoot -10.2373 0.18009
ltoes 1.88992
586
root 33.0826 16.8424 -9.49208 -155.649 66.9436 180.236
lowerback -16.9828 0.855279 -5.52644
upperback -5.98225 2.54427 -1.01414
thorax 2.93074 1.50427 2.54693
lowerneck 1.94567 1.6551 -4.87636
upperneck -2.58591 2.32958 7.36707
head -1.32529 1.12865 3.19555
rclavicle 2.89232e-014 1.59028e-014
rhumerus 70.2906 -1.07183 -39.4357
rradius 40.1594
rwrist 3.98267
rhand -34.047 12.752
rfingers 7.12502
rthumb -7.22497 -17.1047
lclavicle 2.89232e-014 1.59028e-014
lhumerus 76.0699 3.49393 37.4668
lradius 29.7415
lwrist -18.2942
lhand -33.1336 32.3421
lfingers 7.12502
lthumb -6.3432 62.2271
rfemur -7.45432 5.05995 23.6773
rtibia 16.4355
rfoot 1.4501 -5.75867
rtoes -15.2689
lfemur -41.6125 -9.27233 -15.754
ltibia 25.6858
lfoot -10.2315 0.265239
ltoes 2.36261
587
root 33.0953 16.8382 -9.48436 -155.788 66.9538 180.098
lowerback -17.257 0.758426 -5.85153
upperback -5.88094 2.48597 -0.92603
thorax 3.16811 1.46744 2.82524
lowerneck 2.08215 1.63981 -4.64275
upperneck -2.70907 2.30165 6.99579
head -1.37585 1.11222 3.02414
rclavicle 7.22582e-014 -8.74653e-015
rhumerus 70.138 -1.17327 -38.9596
rradius 40.5311
rwrist 3.36367
rhand -33.838 12.6773
rfingers 7.12502
rthumb -7.02323 -17.1862
lclavicle 7.22582e-014 -8.74653e-015
lhumerus 75.8713 3.73057 37.1401
lradius 30.1031
lwrist -18.2036
lhand -32.9472 31.7119
lfingers 7.12502
lthumb -6.16319 61.6023
rfemur -7.42371 5.54489 23.6701
rtibia 16.4696
rfoot 1.74029 -6.08887
rtoes -15.6728
lfemur -41.6096 -9.25056 -15.7821
ltibia 25.742
lfoot -10.2592 0.254544
ltoes 2.19061
588
root 33.0965 16.8375 -9.4843 -155.899 66.9356 180.012
lowerback -17.6062 0.713044 -6.08028
upperback -5.82537 2.48839 -0.806335
thorax 3.3945 1.46288 3.09625
lowerneck 2.5297 1.67305 -4.71481
upperneck -2.70476 2.32638 6.99796
head -1.45753 1.1165 3.03665
rclavicle 3.19298e-014 -1.27222e-014
rhumerus 69.7663 -1.17366 -38.2198
rradius 40.9883
rwrist 3.15338
rhand -33.9886 12.1724
rfingers 7.12502
rthumb -7.16854 -17.6862
lclavicle 3.19298e-014 -1.27222e-014
lhumerus 75.6393 3.73593 36.9606
lradius 30.4086
lwrist -18.0338
lhand -33.2975 31.4949
lfingers 7.12502
lthumb -6.50145 61.3751
rfemur -7.43026 5.38274 23.6354
rtibia 16.5413
rfoot 1.66106 -5.8611
rtoes -15.6832
lfemur -41.5949 -9.26424 -15.821
ltibia 25.7781
lfoot -10.26 0.234523
ltoes 2.11883
589
root 33.0915 16.838 -9.48514 -155.925 66.8556 180.112
lowerback -17.4994 0.622592 -5.96789
upperback -5.70203 2.3272 -0.705826
thorax 3.48503 1.37102 3.10735
lowerneck 2.43918 1.67975 -4.74819
upperneck -2.81034 2.32753 6.71375
head -1.47026 1.12077 2.94653
rclavicle -1.41634e-015 1.39149e-014
rhumerus 69.797 -1.14925 -38.0321
rradius 41.3978
rwrist 3.47178
rhand -34.2314 12.4566
rfingers 7.12502
rthumb -7.40295 -17.3939
lclavicle -1.41634e-015 1.39149e-014
lhumerus 75.1382 4.16056 36.3972
lradius 30.8385
lwrist -17.6886
lhand -33.9343 30.562
lfingers 7.12502
lthumb -7.11611 60.4223
rfemur -7.29597 6.02374 23.6976
rtibia 16.6035
rfoot 1.89075 -6.54296
rtoes -15.4892
lfemur -41.4978 -9.26048 -15.8309
ltibia 25.8093
lfoot -10.2662 0.155594
ltoes 2.13284
590
root 33.092 16.8409 -9.4833 -156.069 66.8375 180.018
lowerback -17.5221 0.641495 -6.03452
upperback -5.59535 2.36131 -0.719459
thorax 3.60504 1.3779 3.14046
lowerneck 1.9706 1.66773 -4.98198
upperneck -2.41799 2.31549 7.04407
head -1.27015 1.12416 3.10411
rclavicle -3.39176e-014 1.74931e-014
rhumerus 69.5093 -1.39038 -37.901
rradius 41.9561
rwrist 3.45763
rhand -33.8468 12.5675
rfingers 7.12502
rthumb -7.03165 -17.2957
lclavicle -3.39176e-014 1.74931e-014
lhumerus 75.0801 4.32165 36.3734
lradius 31.0862
lwrist -17.6363
lhand -34.0368 30.4206
lfingers 7.12502
lthumb -7.21512 60.2776
rfemur -7.34384 4.63524 23.6529
rtibia 16.6929
rfoot 1.16507 -5.44529
rtoes -14.9065
lfemur -41.4579 -9.18037 -15.9281
ltibia 25.8285
lfoot -10.2598 0.019413
ltoes 2.5906
591
root 33.0909 16.844 -9.4815 -156.127 66.8507 179.984
lowerback -17.495 0.617472 -6.06331
upperback -5.52306 2.32534 -0.669819
thorax 3.66753 1.35348 3.20306
lowerneck 2.17558 1.58628 -4.7821
upperneck -2.77761 2.19772 6.4899
head -1.4005 1.06288 2.88012
rclavicle -1.10325e-014 -9.14409e-015
rhumerus 69.3617 -1.53773 -37.7143
rradius 42.5341
rwrist 3.16747
rhand -33.4023 12.4858
rfingers 7.12502
rthumb -6.60259 -17.3913
lclavicle -1.10325e-014 -9.14409e-015
lhumerus 74.886 4.5724 36.3891
lradius 31.3993
lwrist -17.5751
lhand -34.1474 30.6
lfingers 7.12502
lthumb -7.32184 60.4533
rfemur -7.37884 4.72996 23.6389
rtibia 16.8104
rfoot 1.18682 -5.51738
rtoes -15.0253
lfemur -41.4614 -9.09328 -15.9949
ltibia 25.8364
lfoot -10.2423 -0.0989011
ltoes 3.03201
